<svg width="20" height="20" viewBox="0 0 20 20" fill="none" xmlns="http://www.w3.org/2000/svg">
<path fill-rule="evenodd" clip-rule="evenodd" d="M7.90879 1.79883C9.16252 3.37147 10.2809 5.04738 11.2521 6.80862C12.9983 6.1556 14.6583 5.29185 16.1952 4.23655C15.4044 3.38422 14.4459 2.70457 13.38 2.24024C12.314 1.77592 11.1636 1.53695 10.0009 1.53834C9.27892 1.53834 8.57847 1.62858 7.90879 1.79883ZM17.1387 5.4549C15.531 6.56719 13.7957 7.4827 11.97 8.18183C12.2622 8.77255 12.5391 9.37352 12.7986 9.98269C14.6859 9.70432 16.61 9.8079 18.4565 10.2873C18.518 8.57974 18.0584 6.89495 17.1387 5.4549ZM18.2637 11.8277C16.6792 11.3864 15.0236 11.2595 13.3903 11.4544C14.0507 13.2145 14.5696 15.0245 14.942 16.8672C16.6307 15.6524 17.8132 13.8585 18.2637 11.8277ZM13.5339 17.6887C13.1559 15.6565 12.5923 13.6634 11.85 11.7343C8.96317 12.4511 6.42308 14.1662 4.67934 16.5759C6.18368 17.7974 8.06315 18.4627 10.0009 18.4599C11.2204 18.4611 12.4256 18.1983 13.5339 17.6897M3.56662 15.494C5.47324 12.946 8.18353 11.1155 11.2593 10.2986C11.0214 9.75571 10.7693 9.21916 10.5034 8.68948C7.60752 9.58974 4.5697 9.94478 1.54424 9.73656C1.47549 11.8406 2.19697 13.8953 3.56662 15.494ZM1.73089 8.20644C4.44225 8.38299 7.16343 8.07744 9.76811 7.30396C8.78567 5.55643 7.65113 3.89889 6.37765 2.35057C5.20684 2.90641 4.17907 3.72331 3.37334 4.73847C2.56762 5.75363 2.00539 6.94002 1.72987 8.20644M6.31406 0.699438C7.48769 0.235138 8.73877 -0.00220286 10.0009 1.54067e-05C11.5342 -0.00111517 13.0472 0.350954 14.4226 1.02892C15.7979 1.70688 16.9985 2.69252 17.9315 3.9094C19.2755 5.65464 20.003 7.79628 20 9.9991C19.9995 11.8017 19.5122 13.5707 18.5894 15.1192C17.6666 16.6676 16.3426 17.9381 14.7574 18.7962C13.2969 19.5873 11.6618 20.0005 10.0009 19.9982C7.44468 20.0015 4.98485 19.0227 3.12974 17.2641C1.99473 16.1934 1.12677 14.8713 0.595625 13.4042C0.0644843 11.9371 -0.115015 10.3658 0.0715569 8.81664C0.2853 7.0272 0.978204 5.32865 2.07713 3.9003C3.17605 2.47196 4.64022 1.3668 6.31509 0.70149" fill="white"/>
</svg>
