<svg width="20" height="20" viewBox="0 0 20 20" fill="none" xmlns="http://www.w3.org/2000/svg">
<path d="M20 2.36823C19.7263 2.87284 19.4155 3.3454 19.0714 3.77996C18.7257 4.2173 18.35 4.61727 17.9486 4.97545C17.9615 5.19602 17.9681 5.41709 17.9686 5.63824C17.9686 6.64737 17.8814 7.64419 17.7057 8.63047C17.5306 9.6132 17.275 10.5716 16.9429 11.4908C16.4828 12.786 15.8747 13.9937 15.1371 15.0773C14.4302 16.1135 13.6022 17.0147 12.68 17.7513C11.7546 18.4862 10.7461 19.049 9.68714 19.4215C8.58214 19.8107 7.43793 20.0054 6.28857 19.9999C5.18017 20.0016 4.07721 19.8092 3.01286 19.4285C1.94613 19.0463 0.930953 18.4729 0 17.7267C1.07453 17.8866 2.16413 17.7841 3.20644 17.4251C4.24875 17.0661 5.22329 16.4577 6.07429 15.6346C5.43765 15.6236 4.81203 15.4286 4.24796 15.0652C3.68389 14.7017 3.19718 14.1801 2.82714 13.5425C2.57476 13.114 2.37856 12.6394 2.24571 12.1361C2.37571 12.1607 2.50429 12.1818 2.63143 12.1976C3.12177 12.2566 3.61676 12.2036 4.09143 12.0411C3.62323 11.9275 3.17525 11.712 2.76857 11.4047C2.37451 11.1067 2.02312 10.7307 1.72857 10.2918C1.12388 9.39081 0.79527 8.25723 0.8 7.08864V7.03062C1.37429 7.42971 1.99571 7.64243 2.66571 7.66705C2.10704 7.19873 1.64837 6.57154 1.32857 5.83866C1.17196 5.47719 1.05065 5.09421 0.967143 4.69767C0.797057 3.85852 0.800495 2.9803 0.977143 2.1432C1.06714 1.71599 1.20714 1.30988 1.39714 0.924859C1.91714 1.71775 2.49714 2.42976 3.13429 3.05739C4.40059 4.30719 5.8638 5.2201 7.43143 5.73845C8.22269 5.99939 9.03454 6.15441 9.85286 6.20082C9.81338 6.01326 9.78568 5.82223 9.77 5.62945C9.75391 5.4361 9.7458 5.24188 9.74571 5.04753C9.74571 4.34957 9.85286 3.69381 10.0686 3.08201C10.4868 1.8731 11.2691 0.910378 12.2514 0.395681C12.7556 0.13014 13.2988 -0.00452288 13.8471 0.000115893C14.4096 -0.00325105 14.9665 0.137038 15.4826 0.412112C15.9988 0.687186 16.4629 1.09106 16.8457 1.5982C17.7622 1.37552 18.6408 0.960424 19.4429 0.371068C19.1455 1.54259 18.505 2.53633 17.6457 3.15936C18.4582 3.04315 19.2519 2.77704 20 2.36999V2.36823Z" fill="white"/>
</svg>
