<svg width="20" height="20" viewBox="0 0 20 20" fill="none" xmlns="http://www.w3.org/2000/svg">
<path d="M19.2894 2.11468L15.1752 0.125079C14.9425 0.0117623 14.6805 -0.0258368 14.4255 0.0175124C14.1706 0.0608616 13.9354 0.183004 13.7527 0.366948L5.87244 7.59472L2.4382 4.97689C2.28353 4.85804 2.09227 4.79752 1.89776 4.8059C1.70325 4.81428 1.51784 4.89103 1.37386 5.02275L0.273908 6.03043C0.187935 6.10853 0.119156 6.20383 0.0719859 6.31023C0.0248159 6.41662 0.000296932 6.53175 2.68028e-06 6.64823C-0.000291572 6.76471 0.0236454 6.87996 0.0702773 6.9866C0.116909 7.09323 0.185205 7.18888 0.270783 7.26742L3.24941 9.99959L0.270783 12.7318C0.185205 12.8103 0.116909 12.9059 0.0702773 13.0126C0.0236454 13.1192 -0.000291572 13.2345 2.68028e-06 13.3509C0.000296932 13.4674 0.0248159 13.5826 0.0719859 13.6889C0.119156 13.7953 0.187935 13.8906 0.273908 13.9687L1.37386 14.9764C1.51784 15.1081 1.70325 15.1849 1.89776 15.1933C2.09227 15.2017 2.28353 15.1411 2.4382 15.0223L5.87244 12.4013L13.7565 19.6322C13.9385 19.8161 14.1732 19.9383 14.4276 19.9817C14.6821 20.0251 14.9437 19.9874 15.1758 19.8741L19.2938 17.8813C19.5058 17.779 19.6847 17.6183 19.8097 17.4179C19.9347 17.2176 20.0006 16.9858 20 16.7493V3.24549C20 2.76427 19.7231 2.32263 19.2907 2.11342L19.2894 2.11468ZM15.0021 14.5649L9.01918 10.0002L15.0021 5.4355V14.5649Z" fill="white"/>
</svg>
